<?xml version="1.0" standalone="no"?>
<!DOCTYPE svg PUBLIC "-//W3C//DTD SVG 20010904//EN"
 "http://www.w3.org/TR/2001/REC-SVG-20010904/DTD/svg10.dtd">
<svg version="1.0" xmlns="http://www.w3.org/2000/svg"
 width="52.000000pt" height="136.000000pt" viewBox="0 0 52.000000 136.000000"
 preserveAspectRatio="xMidYMid meet">

<g transform="translate(0.000000,136.000000) scale(0.100000,-0.100000)"
fill="#000000" stroke="none">
<path d="M295 1209 c-5 -15 -10 -18 -18 -10 -16 16 -27 14 -27 -5 0 -11 -6
-14 -21 -9 -18 6 -20 4 -15 -13 5 -16 2 -22 -16 -25 l-23 -4 23 -8 c26 -9 28
-20 6 -29 -20 -8 -10 -21 14 -21 11 0 16 -7 14 -17 -3 -21 9 -23 26 -6 17 17
17 -132 0 -154 -15 -19 -61 -7 -53 14 4 9 -7 13 -40 14 -51 1 -56 -9 -20 -38
28 -22 32 -38 10 -38 -8 0 -15 -5 -15 -11 0 -6 12 -9 28 -7 27 3 29 8 17 41
-7 16 -5 17 21 5 16 -6 31 -13 33 -14 8 -6 -45 -124 -56 -124 -16 0 -17 16 -3
25 16 10 1 25 -17 18 -13 -5 -15 -2 -10 11 6 14 3 16 -14 11 -14 -5 -25 -1
-34 12 -14 17 -14 17 -15 -4 0 -26 -10 -29 -29 -10 -11 10 -12 8 -6 -10 5 -17
2 -23 -10 -23 -12 0 -15 -6 -10 -20 4 -11 2 -20 -4 -20 -6 0 -11 -4 -11 -10 0
-5 9 -10 21 -10 16 0 19 -4 14 -21 -6 -18 -4 -20 14 -14 15 5 21 2 21 -9 0
-21 10 -20 26 2 12 16 13 16 19 0 10 -26 26 -22 20 5 -7 25 16 53 34 42 15 -9
52 -96 45 -106 -3 -5 -12 -9 -20 -9 -8 0 -14 -7 -14 -15 0 -18 12 -19 29 -2
16 16 40 -15 43 -55 0 -15 1 -33 2 -39 1 -7 -19 -18 -44 -25 -75 -22 -130 -98
-130 -178 1 -70 60 -150 132 -180 75 -32 150 -12 215 56 101 105 55 260 -90
303 -38 11 -42 16 -39 41 5 59 11 74 29 67 13 -5 15 -2 9 12 -11 28 33 125 57
125 16 0 17 -2 7 -15 -7 -9 -10 -19 -6 -23 4 -4 16 4 27 17 14 17 25 22 44 17
20 -5 25 -3 25 14 0 17 -5 19 -31 13 -28 -5 -31 -4 -25 13 4 13 -1 23 -15 32
-18 11 -20 11 -17 -10 6 -43 -15 -33 -44 22 -15 30 -28 60 -28 67 0 13 36 28
60 25 8 -1 23 10 33 23 l18 25 -36 0 c-23 0 -35 -5 -35 -13 0 -20 -50 -41 -64
-27 -13 13 -25 150 -13 157 4 2 15 -1 24 -9 14 -11 15 -10 8 11 -6 20 -5 22
16 16 18 -6 21 -4 15 11 -4 10 -1 21 6 26 10 6 10 10 -2 18 -13 8 -12 11 5 24
19 15 19 15 -7 16 -22 0 -25 4 -21 23 5 18 3 20 -8 10 -19 -19 -29 -16 -29 7
0 26 -17 26 -25 -1z m-26 -46 c-1 -5 0 -10 1 -13 6 -13 7 -70 1 -70 -24 0 -43
65 -24 83 9 9 23 9 22 0z m72 -17 c13 -27 -3 -66 -26 -66 -18 0 -20 26 -2 33
8 4 9 8 1 14 -15 11 -13 43 3 43 7 0 18 -11 24 -24z m-82 -341 c-12 -30 -26
-55 -31 -55 -11 0 -11 3 10 57 36 93 35 90 39 70 3 -10 -6 -42 -18 -72z m86
25 c16 -33 26 -62 23 -65 -6 -6 -68 98 -68 115 0 26 19 5 45 -50z m-15 -40
c11 -22 17 -40 12 -40 -9 0 -42 53 -42 69 0 20 9 11 30 -29z m-50 -10 c-7 -16
-17 -30 -22 -30 -5 0 -7 4 -4 9 3 4 10 21 16 36 6 15 13 25 17 22 3 -4 0 -20
-7 -37z m-146 4 c21 -8 21 -36 0 -32 -10 2 -19 -3 -21 -9 -3 -8 4 -13 18 -13
21 0 22 -1 7 -16 -21 -22 -56 -10 -64 22 -10 40 20 64 60 48z m181 -24 c13
-40 -17 -82 -31 -45 -8 19 3 65 16 65 5 0 12 -9 15 -20z m-52 -85 c15 -31 27
-63 28 -73 0 -9 16 16 36 56 19 40 38 70 41 68 9 -10 -49 -134 -65 -140 -20
-8 -15 -14 -52 68 -34 76 -34 76 -23 76 4 0 20 -25 35 -55z m26 -5 c0 -9 -6
-4 -14 10 -8 14 -14 32 -14 40 0 9 6 4 14 -10 8 -14 14 -32 14 -40z m40 16
c-7 -14 -16 -26 -21 -26 -12 0 -10 8 8 36 21 31 29 25 13 -10z m-49 -262 c0
-8 -7 -14 -16 -14 -26 0 -71 -31 -83 -57 -23 -50 -14 -93 28 -134 39 -39 81
-52 81 -24 0 8 -6 15 -14 15 -26 0 -76 59 -76 90 0 35 28 69 60 72 20 2 26 -2
28 -21 3 -21 1 -23 -22 -17 -16 4 -26 2 -26 -5 0 -6 9 -13 20 -16 23 -6 27
-43 5 -43 -24 0 -17 -19 10 -32 22 -10 29 -9 48 10 17 18 18 22 5 22 -28 0
-30 30 -3 42 30 13 34 32 5 23 -16 -5 -20 -2 -20 19 0 14 5 26 11 26 19 0 79
-67 79 -88 0 -24 -41 -69 -75 -82 -32 -12 -33 -30 -1 -30 23 0 69 30 93 60 32
39 1 129 -52 154 -18 9 -38 16 -44 16 -14 0 -14 27 -1 35 17 11 93 -38 118
-75 19 -28 23 -45 20 -86 -5 -59 -28 -94 -81 -124 -56 -32 -136 -25 -178 16
-42 40 -59 75 -59 125 0 55 30 102 82 128 43 21 58 20 58 -5z"/>
</g>
</svg>
